<svg version="1.1" viewBox="0.0 0.0 764.7664041994751 314.4461942257218" fill="none" stroke="none" stroke-linecap="square" stroke-miterlimit="10" xmlns:xlink="http://www.w3.org/1999/xlink" xmlns="http://www.w3.org/2000/svg"><clipPath id="p.0"><path d="m0 0l764.7664 0l0 314.4462l-764.7664 0l0 -314.4462z" clip-rule="nonzero"/></clipPath><g clip-path="url(#p.0)"><path fill="#000000" fill-opacity="0.0" d="m0 0l764.7664 0l0 314.4462l-764.7664 0z" fill-rule="evenodd"/><path fill="#000000" fill-opacity="0.0" d="m0 0l740.063 0l0 314.4567l-740.063 0z" fill-rule="evenodd"/><path fill="#000000" d="m116.613525 177.5877l-30.46875 34.1875l0 89.453125l-47.453125 0l0 -284.375l47.453125 0l0 133.20312l25.984375 -33.796875l74.796875 -99.40625l57.234375 0l-96.6875 124.796875l101.5625 159.57812l-56.25 0l-76.171875 -123.640625zm338.47656 17.78125l-156.4375 0l0 -37.703125l156.4375 0l0 37.703125zm246.49219 105.859375l-191.01562 0l0 -32.234375l92.578125 -100.96875q11.71875 -13.09375 19.625 -23.140625q7.90625 -10.0625 12.59375 -18.453125q4.6875 -8.40625 6.640625 -15.625q1.953125 -7.234375 1.953125 -14.65625q0 -9.765625 -3.03125 -18.0625q-3.015625 -8.3125 -8.59375 -14.265625q-5.5625 -5.953125 -13.46875 -9.265625q-7.90625 -3.328125 -17.671875 -3.328125q-25.390625 0 -37.40625 13.875q-12.015625 13.859375 -12.015625 38.265625l-46.875 0q0 -18.546875 6.734375 -35.046875q6.75 -16.515625 19.34375 -28.8125q12.59375 -12.3125 30.5625 -19.4375q17.96875 -7.125 40.4375 -7.125q21.09375 0 37.5 6.0625q16.40625 6.046875 27.734375 16.890625q11.328125 10.828125 17.1875 25.671875q5.859375 14.84375 5.859375 32.625q0 13.28125 -4.296875 25.6875q-4.296875 12.390625 -11.921875 24.703125q-7.609375 12.296875 -18.15625 24.703125q-10.546875 12.40625 -22.859375 25.484375l-64.453125 69.140625l133.01562 0l0 37.3125z" fill-rule="nonzero"/></g></svg>